<?xml version="1.0" standalone="no"?>
<svg xmlns="http://www.w3.org/2000/svg" viewBox="0 0 139 71" width="139" height="71"><g fill="#3f616d" color="#3f616d" transform="translate(51.824 0) scale(0.35) "><svg width="100.0" height="100.0" x="0.0" y="0.0" viewBox="0 0 100 100"><g><path d="M89.843,14.968H10.156c-1.569,0-2.843,1.273-2.843,2.843v64.378c0,1.57,1.274,2.843,2.843,2.843h79.687   c1.57,0,2.844-1.273,2.844-2.843V17.811C92.687,16.241,91.413,14.968,89.843,14.968z M85.646,17.03c1.542,0,2.792,1.25,2.792,2.792   c0,1.542-1.25,2.792-2.792,2.792c-1.542,0-2.792-1.25-2.792-2.792C82.855,18.28,84.105,17.03,85.646,17.03z M88.399,80.467H11.582   V25.454h76.817V80.467z"></path><polygon points="40.71,58.317 26.826,51.791 40.71,45.328 40.71,41.667 23.201,50.051 23.201,53.49 40.71,61.98  "></polygon><polygon points="58.028,36.318 55.431,36.318 47.768,67.326 50.383,67.326  "></polygon><polygon points="77.557,50.051 60.047,41.667 60.047,45.328 73.914,51.791 60.047,58.317 60.047,61.98 77.557,53.49  "></polygon></g></svg></g><line x1="52.873999999999995" y1="41" x2="85.774" y2="41" stroke="#9d1a1a" stroke-linecap="round"></line><path fill="#9d1a1a" fill-rule="nonzero" d="M2.26 19.30Q1.30 19.30 0 18.94L0 18.94L0 16.56Q0.50 16.73 0.94 16.73L0.94 16.73Q1.80 16.73 2.03 16.08Q2.26 15.43 2.26 14.16L2.26 14.16L2.26 1.25L5.76 0.96L5.76 14.45Q5.76 16.78 4.96 18.04Q4.15 19.30 2.26 19.30L2.26 19.30ZM20.62 18.46L17.04 19.27L13.92 10.90L12.55 13.27L12.55 18.96L9.02 18.96L9.02 1.25L12.55 0.96L12.55 8.83L16.82 0.96L20.57 0.96L16.70 8.40L20.62 18.46ZM22.54 19.10L22.54 0.96L24.79 0.96Q27.50 0.96 29.11 1.19Q30.72 1.42 31.96 2.59Q33.19 3.77 33.19 6.36L33.19 6.36Q33.19 8.71 32.15 9.92Q31.10 11.14 29.58 11.51Q28.06 11.88 26.06 11.88L26.06 11.88L26.06 18.82L22.54 19.10ZM26.09 9.02L26.69 9.02Q28.08 9.02 28.88 8.45Q29.69 7.87 29.69 6.34L29.69 6.34Q29.69 4.82 28.94 4.30Q28.20 3.77 26.59 3.77L26.59 3.77L26.09 3.77L26.09 9.02ZM35.11 19.10L35.11 5.74L38.47 5.45L38.47 7.63Q39.19 6.60 40.26 5.96Q41.33 5.33 42.98 5.33L42.98 5.33L42.98 8.62Q42.12 8.62 40.72 8.92Q39.31 9.22 38.47 9.96L38.47 9.96L38.47 18.82L35.11 19.10ZM49.20 19.27Q46.78 19.27 45.47 17.35Q44.16 15.43 44.16 12.24L44.16 12.24Q44.16 9.07 45.46 7.18Q46.75 5.28 49.20 5.28L49.20 5.28Q51.62 5.28 52.96 7.18Q54.29 9.07 54.29 12.24L54.29 12.24Q54.29 15.41 52.96 17.34Q51.62 19.27 49.20 19.27L49.20 19.27ZM49.20 16.78Q50.28 16.78 50.59 15.46Q50.90 14.14 50.90 12.22L50.90 12.22Q50.90 10.30 50.59 8.98Q50.28 7.66 49.20 7.66L49.20 7.66Q48.12 7.66 47.83 8.90Q47.54 10.15 47.54 11.95L47.54 11.95Q47.54 14.16 47.83 15.47Q48.12 16.78 49.20 16.78L49.20 16.78ZM61.15 23.16Q58.46 23.16 56.98 22.40Q55.49 21.65 55.49 20.33L55.49 20.33Q55.49 19.42 56.16 18.78Q56.83 18.14 57.86 17.76L57.86 17.76Q56.95 17.50 56.50 17.09Q56.04 16.68 56.04 15.91L56.04 15.91Q56.04 14.98 56.69 14.22Q57.34 13.46 58.39 12.96L58.39 12.96Q56.23 11.71 56.23 9.48L56.23 9.48Q56.23 8.14 56.96 7.19Q57.70 6.24 58.86 5.76Q60.02 5.28 61.30 5.28L61.30 5.28Q63.19 5.28 64.66 6.29L64.66 6.29Q65.38 5.64 66.11 5.21Q66.84 4.78 67.94 4.78L67.94 4.78L67.94 7.01Q66.55 7.01 65.81 7.34L65.81 7.34Q66.10 8.09 66.20 8.52Q66.31 8.95 66.31 9.46L66.31 9.46Q66.31 11.09 65.21 12.30Q64.10 13.51 61.61 13.51L61.61 13.51L60.72 13.49Q60.50 13.46 60.19 13.46L60.19 13.46Q59.88 13.56 59.59 13.88Q59.30 14.21 59.30 14.57L59.30 14.57Q59.30 14.90 59.54 15.14Q59.78 15.38 60.14 15.43L60.14 15.43L63.98 15.86Q67.32 16.25 67.32 19.10L67.32 19.10Q67.32 21.34 65.60 22.25Q63.89 23.16 61.15 23.16L61.15 23.16ZM61.25 11.59Q61.99 11.59 62.40 11.03Q62.81 10.46 62.81 9.43L62.81 9.43Q62.81 8.38 62.38 7.85Q61.94 7.32 61.27 7.32L61.27 7.32Q60.53 7.32 60.10 7.92Q59.66 8.52 59.66 9.41L59.66 9.41Q59.66 10.22 60.02 10.91Q60.38 11.59 61.25 11.59L61.25 11.59ZM61.30 20.71Q64.03 20.71 64.03 19.22L64.03 19.22Q64.03 18.82 63.82 18.62Q63.60 18.43 63.13 18.35Q62.66 18.26 61.61 18.19L61.61 18.19L59.62 18.02Q59.18 18.17 58.87 18.54Q58.56 18.91 58.56 19.37L58.56 19.37Q58.56 20.02 59.24 20.36Q59.93 20.71 61.30 20.71L61.30 20.71ZM69.34 19.10L69.34 5.74L72.70 5.45L72.70 7.63Q73.42 6.60 74.48 5.96Q75.55 5.33 77.21 5.33L77.21 5.33L77.21 8.62Q76.34 8.62 74.94 8.92Q73.54 9.22 72.70 9.96L72.70 9.96L72.70 18.82L69.34 19.10ZM81.24 19.27Q80.38 19.27 79.68 18.73Q78.98 18.19 78.60 17.27Q78.22 16.34 78.22 15.19L78.22 15.19Q78.22 12.58 80.00 11.51Q81.79 10.44 84.17 10.30L84.17 10.30Q84.17 9 84 8.38Q83.83 7.75 83.18 7.75L83.18 7.75Q82.63 7.75 82.34 8.18Q82.06 8.62 81.98 9.29L81.98 9.29L78.70 8.71Q78.94 6.86 80.21 6.07Q81.48 5.28 83.18 5.28L83.18 5.28Q85.37 5.28 86.46 6.43Q87.55 7.58 87.55 9.43L87.55 9.43L87.55 16.42Q87.55 17.54 87.91 18.82L87.91 18.82L84.62 19.10L84.24 17.45Q83.81 18.22 82.97 18.74Q82.13 19.27 81.24 19.27L81.24 19.27ZM82.80 16.87Q83.21 16.87 83.48 16.68Q83.76 16.49 84.17 16.06L84.17 16.06L84.17 12.31Q82.97 12.31 82.25 12.96Q81.53 13.61 81.53 14.98L81.53 14.98Q81.53 15.89 81.85 16.38Q82.18 16.87 82.80 16.87L82.80 16.87ZM90.34 19.10L90.34 5.74L93.62 5.45L93.62 7.18Q94.37 6.31 95.34 5.80Q96.31 5.28 97.27 5.28L97.27 5.28Q98.78 5.28 99.26 7.39L99.26 7.39Q100.85 5.28 102.82 5.28L102.82 5.28Q104.11 5.28 104.66 6.31Q105.22 7.34 105.22 9.38L105.22 9.38L105.22 18.82L101.90 19.10L101.90 9.55Q101.90 8.90 101.66 8.53Q101.42 8.16 101.11 8.16L101.11 8.16Q100.61 8.16 100.16 8.44Q99.72 8.71 99.41 9.12L99.41 9.12L99.41 18.82L96.12 19.10L96.12 9.53Q96.12 8.86 95.92 8.51Q95.71 8.16 95.45 8.16L95.45 8.16Q94.97 8.16 94.46 8.45Q93.96 8.74 93.62 9.12L93.62 9.12L93.62 18.82L90.34 19.10ZM111.41 3.58L108.05 3.72L108.05 0.24L111.41 0L111.41 3.58ZM111.38 18.82L108.02 19.10L108.02 5.74L111.38 5.45L111.38 18.82ZM114.34 19.10L114.34 5.74L117.70 5.45L117.70 7.18Q118.73 6.26 119.72 5.77Q120.72 5.28 121.56 5.28L121.56 5.28Q122.83 5.28 123.64 6.20Q124.44 7.13 124.44 8.69L124.44 8.69L124.44 18.82L121.08 19.10L121.08 9.96Q121.08 8.16 119.86 8.16L119.86 8.16Q119.45 8.16 118.96 8.40Q118.46 8.64 117.70 9.10L117.70 9.10L117.70 18.82L114.34 19.10ZM131.86 23.16Q129.17 23.16 127.68 22.40Q126.19 21.65 126.19 20.33L126.19 20.33Q126.19 19.42 126.86 18.78Q127.54 18.14 128.57 17.76L128.57 17.76Q127.66 17.50 127.20 17.09Q126.74 16.68 126.74 15.91L126.74 15.91Q126.74 14.98 127.39 14.22Q128.04 13.46 129.10 12.96L129.10 12.96Q126.94 11.71 126.94 9.48L126.94 9.48Q126.94 8.14 127.67 7.19Q128.40 6.24 129.56 5.76Q130.73 5.28 132 5.28L132 5.28Q133.90 5.28 135.36 6.29L135.36 6.29Q136.08 5.64 136.81 5.21Q137.54 4.78 138.65 4.78L138.65 4.78L138.65 7.01Q137.26 7.01 136.51 7.34L136.51 7.34Q136.80 8.09 136.91 8.52Q137.02 8.95 137.02 9.46L137.02 9.46Q137.02 11.09 135.91 12.30Q134.81 13.51 132.31 13.51L132.31 13.51L131.42 13.49Q131.21 13.46 130.90 13.46L130.90 13.46Q130.58 13.56 130.30 13.88Q130.01 14.21 130.01 14.57L130.01 14.57Q130.01 14.90 130.25 15.14Q130.49 15.38 130.85 15.43L130.85 15.43L134.69 15.86Q138.02 16.25 138.02 19.10L138.02 19.10Q138.02 21.34 136.31 22.25Q134.59 23.16 131.86 23.16L131.86 23.16ZM131.95 11.59Q132.70 11.59 133.10 11.03Q133.51 10.46 133.51 9.43L133.51 9.43Q133.51 8.38 133.08 7.85Q132.65 7.32 131.98 7.32L131.98 7.32Q131.23 7.32 130.80 7.92Q130.37 8.52 130.37 9.41L130.37 9.41Q130.37 10.22 130.73 10.91Q131.09 11.59 131.95 11.59L131.95 11.59ZM132 20.71Q134.74 20.71 134.74 19.22L134.74 19.22Q134.74 18.82 134.52 18.62Q134.30 18.43 133.84 18.35Q133.37 18.26 132.31 18.19L132.31 18.19L130.32 18.02Q129.89 18.17 129.58 18.54Q129.26 18.91 129.26 19.37L129.26 19.37Q129.26 20.02 129.95 20.36Q130.63 20.71 132 20.71L132 20.71Z" transform="translate(0, 47)"></path></svg>